<svg xmlns="http://www.w3.org/2000/svg" width="32" height="32" viewBox="0 0 32 32" fill="none">
    <path d="M12.6666 13.3338C12.6666 12.2784 11.2629 11.9986 10.8905 12.9861C9.98963 15.3748 9.33325 17.5117 9.33325 18.667C9.33325 22.3489 12.318 25.3337 15.9999 25.3337C19.6818 25.3337 22.6666 22.3489 22.6666 18.667C22.6666 17.4258 21.909 15.0516 20.9045 12.4494C19.6034 9.07843 18.9528 7.39296 18.1497 7.30218C17.8927 7.27313 17.6124 7.32536 17.3831 7.44499C16.6666 7.81888 16.6666 9.65717 16.6666 13.3338C16.6666 14.4383 15.7712 15.3338 14.6666 15.3338C13.562 15.3338 12.6666 14.4383 12.6666 13.3338Z" stroke="#FF3B30" stroke-width="3"/>
</svg>