<svg xmlns="http://www.w3.org/2000/svg" width="32" height="32" viewBox="0 0 32 32" fill="none">
    <path d="M17.7889 27.1056L17.118 25.764L17.7889 27.1056ZM18.3692 26.7634L19.4133 27.8403L18.3692 26.7634ZM18.6986 25.686L20.1954 25.7836L18.6986 25.686ZM18.6048 26.4085L17.2071 25.864L18.6048 26.4085ZM13.3014 25.686L11.8046 25.7836L13.3014 25.686ZM13.3952 26.4085L11.9975 26.953L13.3952 26.4085ZM14.2111 27.1056L14.882 25.764L14.2111 27.1056ZM13.6308 26.7634L12.5867 27.8403L13.6308 26.7634ZM11.3664 19.8556L10.4966 21.0777L11.3664 19.8556ZM11.8727 20.2616L10.7051 21.2033L11.8727 20.2616ZM20.6336 19.8556L21.5034 21.0777L20.6336 19.8556ZM19.8858 20.7304L18.5072 20.1392L19.8858 20.7304ZM20.1273 20.2616L21.2949 21.2033L20.1273 20.2616ZM22.5 13.3334C22.5 15.5189 21.4229 17.4528 19.7638 18.6336L21.5034 21.0777C23.9192 19.3583 25.5 16.5305 25.5 13.3334H22.5ZM16 6.83337C19.5899 6.83337 22.5 9.74352 22.5 13.3334H25.5C25.5 8.08667 21.2467 3.83337 16 3.83337V6.83337ZM9.5 13.3334C9.5 9.74352 12.4101 6.83337 16 6.83337V3.83337C10.7533 3.83337 6.5 8.08667 6.5 13.3334H9.5ZM12.2362 18.6336C10.5771 17.4528 9.5 15.5189 9.5 13.3334H6.5C6.5 16.5305 8.08075 19.3583 10.4966 21.0777L12.2362 18.6336ZM14.7982 25.5883C14.6756 23.7091 14.2335 21.8664 13.4928 20.1392L10.7356 21.3216C11.3421 22.7359 11.7042 24.2448 11.8046 25.7836L14.7982 25.5883ZM17.118 25.764C16.4142 26.1159 15.5858 26.1159 14.882 25.764L13.5403 28.4473C15.0887 29.2215 16.9113 29.2215 18.4597 28.4473L17.118 25.764ZM18.5072 20.1392C17.7665 21.8664 17.3244 23.7091 17.2018 25.5883L20.1954 25.7836C20.2958 24.2448 20.6579 22.7359 21.2644 21.3216L18.5072 20.1392ZM18.4597 28.4473C18.6758 28.3392 19.0952 28.1488 19.4133 27.8403L17.325 25.6865C17.396 25.6177 17.4487 25.5921 17.4114 25.6133C17.3929 25.6239 17.3625 25.6403 17.3108 25.6669C17.259 25.6935 17.1984 25.7238 17.118 25.764L18.4597 28.4473ZM17.2018 25.5883C17.1954 25.6869 17.1904 25.7633 17.1854 25.8292C17.1805 25.895 17.1766 25.9368 17.1733 25.9648C17.166 26.0279 17.1673 25.9662 17.2071 25.864L20.0025 26.953C20.1645 26.5372 20.1783 26.0468 20.1954 25.7836L17.2018 25.5883ZM19.4133 27.8403C19.6777 27.584 19.8689 27.2961 20.0025 26.953L17.2071 25.864C17.2128 25.8494 17.2286 25.8136 17.2577 25.7697C17.2868 25.7258 17.3138 25.6974 17.325 25.6865L19.4133 27.8403ZM11.8046 25.7836C11.8217 26.0468 11.8355 26.5372 11.9975 26.953L14.7929 25.864C14.8327 25.9662 14.834 26.0279 14.8267 25.9648C14.8234 25.9368 14.8195 25.895 14.8146 25.8292C14.8096 25.7633 14.8046 25.6869 14.7982 25.5883L11.8046 25.7836ZM14.882 25.764C14.8016 25.7238 14.741 25.6935 14.6892 25.6669C14.6375 25.6403 14.6071 25.6239 14.5886 25.6133C14.5513 25.5921 14.604 25.6177 14.675 25.6865L12.5867 27.8403C12.9048 28.1488 13.3242 28.3392 13.5403 28.4473L14.882 25.764ZM11.9975 26.953C12.1312 27.2961 12.3223 27.584 12.5867 27.8403L14.675 25.6865C14.6862 25.6974 14.7132 25.7258 14.7423 25.7697C14.7714 25.8136 14.7872 25.8494 14.7929 25.864L11.9975 26.953ZM10.4966 21.0777C10.5682 21.1286 10.6236 21.1681 10.6711 21.2025C10.7185 21.2369 10.7483 21.2592 10.7679 21.2746C10.8121 21.3092 10.7664 21.2793 10.7051 21.2033L13.0403 19.32C12.7906 19.0104 12.4276 18.7698 12.2362 18.6336L10.4966 21.0777ZM13.4928 20.1392C13.4178 19.9644 13.2847 19.623 13.0403 19.32L10.7051 21.2033C10.685 21.1783 10.6685 21.1543 10.6562 21.1344C10.6449 21.1161 10.6406 21.1069 10.6441 21.1139C10.6482 21.1221 10.6568 21.1402 10.6732 21.1773C10.6898 21.2148 10.7088 21.2591 10.7356 21.3216L13.4928 20.1392ZM19.7638 18.6336C19.5724 18.7698 19.2094 19.0104 18.9597 19.32L21.2949 21.2033C21.2336 21.2793 21.1879 21.3092 21.2321 21.2746C21.2517 21.2592 21.2815 21.2369 21.329 21.2025C21.3764 21.1681 21.4318 21.1286 21.5034 21.0777L19.7638 18.6336ZM21.2644 21.3216C21.2912 21.2591 21.3102 21.2148 21.3268 21.1773C21.3432 21.1402 21.3518 21.1221 21.3559 21.1139C21.3594 21.1069 21.3551 21.1161 21.3438 21.1344C21.3315 21.1543 21.315 21.1783 21.2949 21.2033L18.9597 19.32C18.7153 19.623 18.5822 19.9644 18.5072 20.1392L21.2644 21.3216Z" fill="#FF9500"/>
    <path d="M19.3334 22V22C17.1936 22.8559 14.8066 22.8559 12.6667 22V22" stroke="#FF9500" stroke-width="3"/>
</svg>