<svg xmlns="http://www.w3.org/2000/svg" width="128" height="128" viewBox="0 0 128 128" fill="none">
    <path d="M64 112C57.6965 112 51.4548 110.758 45.6312 108.346C39.8076 105.934 34.5161 102.398 30.0589 97.9411C25.6017 93.4839 22.066 88.1924 19.6538 82.3688C17.2416 76.5452 16 70.3034 16 64C16 57.6965 17.2416 51.4548 19.6538 45.6312C22.066 39.8076 25.6017 34.5161 30.0589 30.0589C34.5161 25.6017 39.8076 22.066 45.6312 19.6538C51.4548 17.2416 57.6966 16 64 16C70.3035 16 76.5452 17.2416 82.3688 19.6538C88.1924 22.066 93.4839 25.6017 97.9411 30.0589C102.398 34.5161 105.934 39.8076 108.346 45.6312C110.758 51.4548 112 57.6966 112 64C112 70.3035 110.758 76.5452 108.346 82.3688C105.934 88.1924 102.398 93.4839 97.9411 97.9411C93.4839 102.398 88.1924 105.934 82.3688 108.346C76.5452 110.758 70.3034 112 64 112L64 112Z" stroke="#FF3B30" stroke-width="6" stroke-linecap="round"/>
    <path d="M48 48L80 80" stroke="#FF3B30" stroke-width="6" stroke-linecap="round"/>
    <path d="M80 48L48 80" stroke="#FF3B30" stroke-width="6" stroke-linecap="round"/>
</svg>