<svg width="72" height="46" viewBox="0 0 72 46" fill="none" xmlns="http://www.w3.org/2000/svg">
<rect y="0.0878906" width="72" height="45.7" rx="8" fill="#FF3B30"/>
<path d="M64 0.0878906C68.4183 0.0878906 72 3.66961 72 8.08789V37.7879C72 42.2062 68.4183 45.7879 64 45.7879V0.0878906Z" fill="#FF3B30"/>
<path d="M24 15.9558V15.9558C24 15.7946 24 15.714 24.0031 15.6459C24.0736 14.0962 25.314 12.8558 26.8637 12.7853C26.9318 12.7822 27.0124 12.7822 27.1736 12.7822L45.7599 12.7822C46.1413 12.7822 46.3321 12.7822 46.4648 12.8809C46.5041 12.91 46.5389 12.9448 46.568 12.9841C46.6667 13.1168 46.6667 13.3076 46.6667 13.689V13.689C46.6667 15.9775 46.6667 17.1218 46.0749 17.9184C45.8999 18.154 45.6912 18.3627 45.4556 18.5377C44.659 19.1295 43.5148 19.1295 41.2262 19.1295H40M24 15.9558V15.9558C24 16.117 24 16.1976 24.0031 16.2658C24.0736 17.8155 25.314 19.0559 26.8637 19.1264C26.9318 19.1295 27.0124 19.1295 27.1736 19.1295L46 19.1295C46.9428 19.1295 47.4142 19.1295 47.7071 19.4224C48 19.7152 48 20.1867 48 21.1295L48 24.2072M24 15.9558L24 30.3628C24 32.2484 24 33.1912 24.5858 33.777C25.1716 34.3628 26.1144 34.3628 28 34.3628L46 34.3628C46.9428 34.3628 47.4142 34.3628 47.7071 34.0699C48 33.777 48 33.3056 48 32.3628L48 29.285M48 29.285H42C41.0572 29.285 40.5858 29.285 40.2929 28.9921C40 28.6992 40 28.2278 40 27.285V26.2072C40 25.2644 40 24.793 40.2929 24.5001C40.5858 24.2072 41.0572 24.2072 42 24.2072H48M48 29.285L48 24.2072" stroke="white" stroke-width="2"/>
</svg>
