<svg width="72" height="46" viewBox="0 0 72 46" fill="none" xmlns="http://www.w3.org/2000/svg">
<rect y="0.295898" width="72" height="45.7" rx="8" fill="#007AFF"/>
<path d="M64 0.295898C68.4183 0.295898 72 3.87762 72 8.2959V37.9959C72 42.4142 68.4183 45.9959 64 45.9959V0.295898Z" fill="#007AFF"/>
<path d="M24 16.1639V16.1639C24 16.0027 24 15.9221 24.0031 15.8539C24.0736 14.3042 25.314 13.0638 26.8637 12.9933C26.9318 12.9902 27.0124 12.9902 27.1736 12.9902L45.7599 12.9902C46.1413 12.9902 46.3321 12.9902 46.4648 13.0889C46.5041 13.118 46.5389 13.1528 46.568 13.1921C46.6667 13.3249 46.6667 13.5156 46.6667 13.897V13.897C46.6667 16.1856 46.6667 17.3298 46.0749 18.1264C45.8999 18.362 45.6912 18.5707 45.4556 18.7457C44.659 19.3375 43.5148 19.3375 41.2262 19.3375H40M24 16.1639V16.1639C24 16.3251 24 16.4057 24.0031 16.4738C24.0736 18.0235 25.314 19.2639 26.8637 19.3344C26.9318 19.3375 27.0124 19.3375 27.1736 19.3375L46 19.3375C46.9428 19.3375 47.4142 19.3375 47.7071 19.6304C48 19.9233 48 20.3947 48 21.3375L48 24.4152M24 16.1639L24 30.5708C24 32.4564 24 33.3992 24.5858 33.985C25.1716 34.5708 26.1144 34.5708 28 34.5708L46 34.5708C46.9428 34.5708 47.4142 34.5708 47.7071 34.2779C48 33.985 48 33.5136 48 32.5708L48 29.493M48 29.493H42C41.0572 29.493 40.5858 29.493 40.2929 29.2001C40 28.9072 40 28.4358 40 27.493V26.4152C40 25.4724 40 25.001 40.2929 24.7081C40.5858 24.4152 41.0572 24.4152 42 24.4152H48M48 29.493L48 24.4152" stroke="white" stroke-width="2"/>
</svg>
