<svg width="24" height="24" viewBox="0 0 24 24" fill="none" xmlns="http://www.w3.org/2000/svg">
<rect width="24" height="24" rx="12" fill="#EFEFF4"/>
<path d="M13.4082 14.6543H10.918C10.9245 14.0684 10.9701 13.5638 11.0547 13.1406C11.1458 12.7109 11.2988 12.3236 11.5137 11.9785C11.735 11.6335 12.028 11.2917 12.3926 10.9531C12.6986 10.6797 12.9655 10.4193 13.1934 10.1719C13.4212 9.92448 13.6003 9.67057 13.7305 9.41016C13.8607 9.14323 13.9258 8.84701 13.9258 8.52148C13.9258 8.14388 13.8672 7.83138 13.75 7.58398C13.6393 7.33008 13.4701 7.13802 13.2422 7.00781C13.0208 6.8776 12.7409 6.8125 12.4023 6.8125C12.1224 6.8125 11.862 6.87435 11.6211 6.99805C11.3802 7.11523 11.1816 7.29753 11.0254 7.54492C10.8757 7.79232 10.7975 8.11784 10.791 8.52148H7.95898C7.97852 7.62956 8.18359 6.89388 8.57422 6.31445C8.97135 5.72852 9.50195 5.29557 10.166 5.01562C10.8301 4.72917 11.5755 4.58594 12.4023 4.58594C13.3138 4.58594 14.0951 4.73568 14.7461 5.03516C15.3971 5.32812 15.8952 5.76107 16.2402 6.33398C16.5853 6.90039 16.7578 7.59049 16.7578 8.4043C16.7578 8.9707 16.6471 9.47526 16.4258 9.91797C16.2044 10.3542 15.9147 10.7611 15.5566 11.1387C15.1986 11.5163 14.8047 11.9069 14.375 12.3105C14.0039 12.6426 13.75 12.9909 13.6133 13.3555C13.4831 13.7201 13.4147 14.153 13.4082 14.6543ZM10.625 17.6719C10.625 17.2552 10.7682 16.9102 11.0547 16.6367C11.3411 16.3568 11.7253 16.2168 12.207 16.2168C12.6823 16.2168 13.0632 16.3568 13.3496 16.6367C13.6426 16.9102 13.7891 17.2552 13.7891 17.6719C13.7891 18.0755 13.6426 18.4173 13.3496 18.6973C13.0632 18.9772 12.6823 19.1172 12.207 19.1172C11.7253 19.1172 11.3411 18.9772 11.0547 18.6973C10.7682 18.4173 10.625 18.0755 10.625 17.6719Z" fill="#AFAFB6"/>
</svg>
