<svg xmlns="http://www.w3.org/2000/svg" width="112" height="112" viewBox="0 0 112 112" fill="none">
    <g clip-path="url(#clip0_1135_1060)">
        <path fill-rule="evenodd" clip-rule="evenodd" d="M82.2501 64.75C87.0794 64.75 91.0001 60.8293 91.0001 56C91.0001 51.1707 87.0794 47.25 82.2501 47.25L29.7501 47.25C24.9208 47.25 21.0001 51.1707 21.0001 56C21.0001 60.8293 24.9208 64.75 29.7501 64.75H82.2501Z" fill="#34C759"/>
        <path fill-rule="evenodd" clip-rule="evenodd" d="M64.75 29.75C64.75 24.9207 60.8293 21 56 21C51.1707 21 47.25 24.9207 47.25 29.75V82.2499C47.25 87.0792 51.1707 90.9999 56 90.9999C60.8293 90.9999 64.75 87.0792 64.75 82.2499V29.75Z" fill="#34C759"/>
    </g>
    <defs>
        <clipPath id="clip0_1135_1060">
            <rect width="112" height="112" fill="white"/>
        </clipPath>
    </defs>
</svg>