<svg xmlns="http://www.w3.org/2000/svg" width="112" height="112" viewBox="0 0 112 112" fill="none">
    <g clip-path="url(#clip0_1135_1090)">
        <path fill-rule="evenodd" clip-rule="evenodd" d="M84.0001 50.4485C87.8635 50.4485 91.0001 47.312 91.0001 43.4485C91.0001 39.585 87.8635 36.4485 84.0001 36.4485L28.0001 36.4485C24.1367 36.4485 21.0001 39.585 21.0001 43.4485C21.0001 47.312 24.1367 50.4485 28.0001 50.4485H84.0001Z" fill="#FFCC00"/>
        <path fill-rule="evenodd" clip-rule="evenodd" d="M84.0001 75.25C87.8635 75.25 91.0001 72.1135 91.0001 68.25C91.0001 64.3865 87.8635 61.25 84.0001 61.25L28.0001 61.25C24.1367 61.25 21.0001 64.3865 21.0001 68.25C21.0001 72.1135 24.1367 75.25 28.0001 75.25H84.0001Z" fill="#FFCC00"/>
        <path fill-rule="evenodd" clip-rule="evenodd" d="M56.0001 25.3479C58.7317 22.6163 58.7319 18.1804 56 15.4485C53.2681 12.7166 48.8322 12.7168 46.1006 15.4484L23.0488 38.5002C20.3172 41.2318 20.317 45.6677 23.0489 48.3996C25.7808 51.1315 30.2167 51.1313 32.9483 48.3997L56.0001 25.3479Z" fill="#FFCC00"/>
        <path fill-rule="evenodd" clip-rule="evenodd" d="M88.9513 73.1983C91.6832 70.4664 91.6831 66.0307 88.9512 63.2989C86.2193 60.567 81.7837 60.5669 79.0518 63.2988L58.0489 84.3017C55.317 87.0336 55.3171 91.4692 58.049 94.2011C60.7808 96.933 65.2165 96.9331 67.9484 94.2012L88.9513 73.1983Z" fill="#FFCC00"/>
    </g>
    <defs>
        <clipPath id="clip0_1135_1090">
            <rect width="112" height="112" fill="white"/>
        </clipPath>
    </defs>
</svg>