<svg xmlns="http://www.w3.org/2000/svg" width="88" height="77" viewBox="0 0 88 77" fill="none">
    <path d="M11 20.8542V18.8333C11 16.0049 11 14.5907 11.8787 13.712C12.7574 12.8333 14.1716 12.8333 17 12.8333L72.3333 12.8333C72.8047 12.8333 73.0404 12.8333 73.1869 12.9798C73.3333 13.1262 73.3333 13.3619 73.3333 13.8333V22.875C73.3333 25.7034 73.3333 27.1176 72.4547 27.9963C71.576 28.875 70.1618 28.875 67.3333 28.875H55M11 20.8542V22.875C11 25.7034 11 27.1176 11.8787 27.9963C12.7574 28.875 14.1716 28.875 17 28.875L75 28.875C75.9428 28.875 76.4142 28.875 76.7071 29.1679C77 29.4608 77 29.9322 77 30.875L77 41.7083M11 20.8542L11 63.375C11 65.2606 11 66.2034 11.5858 66.7892C12.1716 67.375 13.1144 67.375 15 67.375L75 67.375C75.9428 67.375 76.4142 67.375 76.7071 67.0821C77 66.7892 77 66.3178 77 65.375L77 54.5417M77 54.5417H57C56.0572 54.5417 55.5858 54.5417 55.2929 54.2488C55 53.9559 55 53.4845 55 52.5417V43.7083C55 42.7655 55 42.2941 55.2929 42.0012C55.5858 41.7083 56.0572 41.7083 57 41.7083H77M77 54.5417L77 41.7083" stroke="#E5E5EA" stroke-width="4"/>
</svg>