<svg xmlns="http://www.w3.org/2000/svg" width="30" height="30" viewBox="0 0 30 30" fill="none">
  <path d="M15 25L5.6797 13.3496C5.34718 12.934 5.18092 12.7262 5.13625 12.4757C5.09159 12.2252 5.17575 11.9728 5.34407 11.4678L6.5883 7.73509C7.02832 6.41505 7.24832 5.75503 7.7721 5.37752C8.29587 5 8.99159 5 10.383 5H19.617C21.0084 5 21.7041 5 22.2279 5.37752C22.7517 5.75503 22.9717 6.41505 23.4117 7.73509L24.6559 11.4678C24.8243 11.9728 24.9084 12.2252 24.8637 12.4757C24.8191 12.7262 24.6528 12.934 24.3203 13.3496L15 25ZM15 25L19.375 11.25M15 25L10.625 11.25M24.375 12.5L19.375 11.25M19.375 11.25L17.5 6.25M19.375 11.25H10.625M12.5 6.25L10.625 11.25M10.625 11.25L5.625 12.5" stroke="#7D7D8C" stroke-width="2" stroke-linecap="round"/>
</svg>